<?xml version="1.0" encoding="iso-8859-1"?>
<!-- Uploaded to: SVG Repo, www.svgrepo.com, Generator: SVG Repo Mixer Tools -->
<svg fill="#000000" height="800px" width="800px" version="1.1" id="Layer_1" xmlns="http://www.w3.org/2000/svg" xmlns:xlink="http://www.w3.org/1999/xlink" 
	 viewBox="0 0 512 512" xml:space="preserve">
<g>
	<g>
		<path d="M331.849,152.336c-7.741-14.216-15.056-27.642-20.707-39.431c-0.591-2.504,2.129-11.427,3.931-17.336
			c3.239-10.626,7.066-23.394,6.691-35.692c13.597-5.746,22.512-13.867,22.512-24.567C344.276,11.052,298.517,0,256,0
			s-88.276,11.052-88.276,35.31c0,10.793,9.088,18.958,22.89,24.712c-0.067,11.156,3.288,22.594,6.368,32.913
			c2.026,6.776,5.082,17.022,3.987,19.685c-5.763,12.073-13.073,25.496-20.815,39.711c-19.129,35.125-38.914,71.448-38.914,94.841
			c0,60.301,46.773,109.776,105.931,114.311v106.378h17.655V361.484c59.157-4.536,105.931-54.011,105.931-114.311
			C370.759,223.784,350.978,187.461,331.849,152.336z M185.379,35.31c0-4.539,24.28-17.655,70.621-17.655
			s70.621,13.117,70.621,17.655c0,2.278-6.124,6.716-18.073,10.572c-2.962,0.959-6.126,1.827-9.464,2.599
			c-0.857,0.199-1.78,0.384-2.678,0.575c-3.418,0.721-6.954,1.372-10.672,1.898c-0.566,0.081-1.171,0.148-1.749,0.224
			c-4.089,0.537-8.303,0.976-12.657,1.268c-0.369,0.026-0.761,0.038-1.134,0.062c-4.629,0.287-9.364,0.457-14.194,0.457
			c-4.805,0-9.516-0.169-14.125-0.454c-0.374-0.023-0.769-0.037-1.14-0.061c-4.335-0.29-8.533-0.724-12.606-1.256
			c-0.581-0.077-1.188-0.145-1.758-0.226c-3.694-0.519-7.21-1.164-10.611-1.876c-0.832-0.177-1.711-0.342-2.511-0.526
			c-3.311-0.757-6.429-1.617-9.374-2.557C191.66,42.123,185.379,37.613,185.379,35.31z M256,344.276
			c-53.543,0-97.103-43.56-97.103-97.103c0-18.897,19.53-54.759,36.763-86.396c7.858-14.427,15.276-28.052,21.241-40.552
			c4.095-8.578,0.806-19.591-3-32.341c-2.146-7.198-4.487-15.042-5.349-22.249c3.513,0.815,7.168,1.509,10.91,2.121
			c0.071,0.012,0.142,0.023,0.213,0.034c11.608,1.882,24.086,2.831,36.325,2.831c16.427,0,33.308-1.67,47.876-5.094
			c0.051-0.012,0.108-0.019,0.158-0.031c-0.702,8.043-3.392,16.862-5.849,24.927c-3.772,12.366-6.746,22.129-3.086,29.797
			c5.965,12.504,13.388,26.134,21.246,40.56c17.229,31.638,36.759,67.5,36.759,86.392C353.103,300.715,309.543,344.276,256,344.276z
			"/>
	</g>
</g>
<g>
	<g>
		<path d="M283.659,451.888c-4.836-0.56-9.254,2.815-9.871,7.647c-0.612,4.836,2.81,9.254,7.647,9.871
			c23.026,2.922,33.914,8.888,36.116,11.703c-3.237,4.203-24.082,13.237-61.552,13.237c-37.474,0-58.319-9.034-61.556-13.237
			c2.263-2.91,13.612-9.056,37.677-11.892c4.84-0.569,8.302-4.957,7.733-9.802c-0.573-4.841-4.931-8.345-9.802-7.733
			c-16.086,1.896-53.5,8.556-53.5,29.422c0,24.388,49.94,30.897,79.448,30.897c29.509,0,79.448-6.509,79.448-30.897
			C335.448,460.668,299.228,453.866,283.659,451.888z"/>
	</g>
</g>
</svg>