<?xml version="1.0" encoding="iso-8859-1"?>
<!-- Uploaded to: SVG Repo, www.svgrepo.com, Generator: SVG Repo Mixer Tools -->
<svg fill="#000000" height="800px" width="800px" version="1.1" id="Layer_1" xmlns="http://www.w3.org/2000/svg" xmlns:xlink="http://www.w3.org/1999/xlink" 
	 viewBox="0 0 512 512" xml:space="preserve">
<g>
	<g>
		<path d="M411.456,415.773H384.74c-4.328,0-7.837,3.509-7.837,7.837c0,4.328,3.509,7.837,7.837,7.837h26.716
			c4.328,0,7.837-3.509,7.837-7.837C419.293,419.282,415.784,415.773,411.456,415.773z"/>
	</g>
</g>
<g>
	<g>
		<path d="M383.649,210.75c-37.184,0-67.436,30.252-67.436,67.436c0,37.184,30.252,67.436,67.436,67.436
			c37.184,0,67.435-30.252,67.435-67.436C451.085,241,420.833,210.75,383.649,210.75z M383.649,329.947
			c-28.541,0-51.762-23.221-51.762-51.762c0-28.541,23.221-51.762,51.762-51.762s51.761,23.221,51.761,51.762
			C435.411,306.727,412.191,329.947,383.649,329.947z"/>
	</g>
</g>
<g>
	<g>
		<path d="M402.275,257.309h-37.25c-4.328,0-7.837,3.509-7.837,7.837c0,4.328,3.509,7.837,7.837,7.837h37.25
			c4.328,0,7.837-3.509,7.837-7.837C410.111,260.818,406.603,257.309,402.275,257.309z"/>
	</g>
</g>
<g>
	<g>
		<path d="M384.893,283.387h-19.869c-4.328,0-7.837,3.509-7.837,7.837s3.509,7.837,7.837,7.837h19.869
			c4.328,0,7.837-3.509,7.837-7.837S389.221,283.387,384.893,283.387z"/>
	</g>
</g>
<g>
	<g>
		<path d="M156.157,415.773h-26.716c-4.328,0-7.837,3.509-7.837,7.837c0,4.328,3.509,7.837,7.837,7.837h26.716
			c4.328,0,7.837-3.509,7.837-7.837C163.994,419.282,160.485,415.773,156.157,415.773z"/>
	</g>
</g>
<g>
	<g>
		<path d="M128.35,210.75c-37.184,0-67.436,30.252-67.436,67.436c0,37.184,30.252,67.436,67.436,67.436s67.435-30.252,67.435-67.436
			C195.785,241,165.534,210.75,128.35,210.75z M128.35,329.947c-28.541,0-51.762-23.221-51.762-51.762
			c0-28.541,23.221-51.762,51.762-51.762s51.761,23.221,51.761,51.762C180.112,306.727,156.892,329.947,128.35,329.947z"/>
	</g>
</g>
<g>
	<g>
		<path d="M146.976,257.309h-37.251c-4.328,0-7.837,3.509-7.837,7.837c0,4.328,3.509,7.837,7.837,7.837h37.25
			c4.328,0,7.837-3.509,7.837-7.837C154.811,260.818,151.304,257.309,146.976,257.309z"/>
	</g>
</g>
<g>
	<g>
		<path d="M129.594,283.387h-19.869c-4.328,0-7.837,3.509-7.837,7.837s3.509,7.837,7.837,7.837h19.869
			c4.328,0,7.837-3.509,7.837-7.837S133.922,283.387,129.594,283.387z"/>
	</g>
</g>
<g>
	<g>
		<path d="M503.297,422.452l-37.652-252.247c-0.638-4.281-4.622-7.23-8.908-6.594c-4.193,0.626-7.102,4.467-6.619,8.647H317.191
			l4.744-31.78c1.694-11.348,11.623-19.905,23.097-19.905h77.235c11.475,0,21.404,8.557,23.095,19.904
			c0.637,4.282,4.622,7.232,8.907,6.596c4.281-0.637,7.234-4.626,6.595-8.906c-2.185-14.656-12.592-26.518-26.058-31.158v-6.502
			c8.117-2.022,14.156-9.352,14.156-18.084V70.253c0-10.288-8.37-18.658-18.659-18.658h-16.435l-8.711-34.81
			C402.683,6.903,393.839,0,383.649,0c-10.187,0-19.031,6.903-21.505,16.785l-8.713,34.81h-16.439
			c-10.287,0-18.657,8.37-18.657,18.658v12.169c0,8.733,6.04,16.063,14.156,18.085v6.502c-13.464,4.638-23.872,16.502-26.06,31.156
			L264,422.448c-0.017,0.109-0.025,0.219-0.041,0.328c-0.001,0.015-0.004,0.028-0.005,0.043c-0.327,2.335-0.446,4.715-0.344,7.075
			c1.981,46.04,39.637,82.106,85.729,82.106h68.617c46.09,0,83.749-36.065,85.731-82.101
			C503.796,427.433,503.664,424.931,503.297,422.452z M430.305,67.268c1.646,0,2.985,1.339,2.985,2.984v12.169
			c0,1.645-1.339,2.982-2.985,2.982h-11.582V67.268H430.305z M403.05,67.268v18.136h-12.503V67.268H403.05z M377.349,20.592
			c0.725-2.896,3.316-4.918,6.301-4.918c2.986,0,5.579,2.022,6.304,4.917l7.758,31.004h-28.123L377.349,20.592z M362.371,67.268
			h12.502v18.136h-12.502V67.268z M348.165,101.078h70.968v3.821h-70.968V101.078z M334.009,70.253c0-1.646,1.339-2.984,2.983-2.984
			h9.706v18.136h-9.706c-1.645,0-2.983-1.337-2.983-2.982V70.253z M314.852,187.931h137.592l26.387,176.78H288.466L314.852,187.931z
			 M417.956,496.327h-68.617c-36.924,0-67.205-28.321-69.919-64.88h76.163c4.328,0,7.837-3.509,7.837-7.837
			c0-4.328-3.509-7.837-7.837-7.837h-74.737l5.282-35.389h195.044l6.624,44.374c0.219,1.485,0.299,2.985,0.235,4.462
			C486.409,466.85,455.629,496.327,417.956,496.327z"/>
	</g>
</g>
<g>
	<g>
		<path d="M247.998,422.453l-37.494-251.202c-0.639-4.281-4.625-7.228-8.908-6.594c-3.84,0.574-6.602,3.844-6.671,7.601H61.892
			l4.744-31.779c1.694-11.348,11.623-19.905,23.097-19.905h77.235c11.475,0,21.404,8.557,23.095,19.904
			c0.638,4.282,4.626,7.232,8.907,6.596c4.281-0.637,7.234-4.626,6.595-8.906c-2.185-14.656-12.592-26.518-26.058-31.158v-6.502
			c8.117-2.022,14.156-9.352,14.156-18.084V70.253c0-10.288-8.37-18.658-18.658-18.658H158.57l-8.711-34.81
			C147.384,6.903,138.54,0,128.35,0c-10.188,0-19.031,6.903-21.505,16.785l-8.713,34.81H81.693c-10.287,0-18.657,8.37-18.657,18.658
			v12.169c0,8.733,6.039,16.063,14.156,18.085v6.502c-13.464,4.638-23.872,16.502-26.059,31.156L8.702,422.449
			c-0.017,0.109-0.025,0.219-0.042,0.328c-0.001,0.015-0.003,0.028-0.005,0.043c-0.327,2.335-0.446,4.715-0.344,7.075
			C10.292,475.934,47.949,512,94.04,512h68.617c46.09,0,83.749-36.065,85.731-82.101
			C248.496,427.433,248.364,424.931,247.998,422.453z M163.425,67.268h11.582c1.646,0,2.984,1.339,2.984,2.984v12.169
			c0,1.645-1.339,2.982-2.984,2.982h-11.582V67.268z M147.751,67.268v18.136h-12.503V67.268H147.751z M122.05,20.592
			c0.725-2.896,3.317-4.918,6.301-4.918c2.986,0,5.579,2.022,6.304,4.917l7.758,31.004h-28.123L122.05,20.592z M107.072,67.268
			h12.502v18.136h-12.502V67.268z M92.866,101.078h70.968v3.821H92.866V101.078z M78.709,70.253c0-1.646,1.339-2.984,2.982-2.984
			h9.706v18.136h-9.706c-1.645,0-2.982-1.337-2.982-2.982V70.253z M59.552,187.931h137.593l26.387,176.78H33.168L59.552,187.931z
			 M162.658,496.327H94.04c-36.924,0-67.205-28.321-69.919-64.88h76.163c4.328,0,7.837-3.509,7.837-7.837
			c0-4.328-3.509-7.837-7.837-7.837H25.546l5.282-35.389h195.044l6.624,44.374c0.219,1.485,0.299,2.985,0.235,4.462
			C231.11,466.85,200.33,496.327,162.658,496.327z"/>
	</g>
</g>
</svg>