<?xml version="1.0" encoding="iso-8859-1"?>
<!-- Uploaded to: SVG Repo, www.svgrepo.com, Generator: SVG Repo Mixer Tools -->
<svg fill="#000000" height="800px" width="800px" version="1.1" id="Layer_1" xmlns="http://www.w3.org/2000/svg" xmlns:xlink="http://www.w3.org/1999/xlink" 
	 viewBox="0 0 120.451 120.451" xml:space="preserve">
<g>
	<g>
		<g>
			<path d="M113.729,57.977c-7.583-2.611-16.87-2.693-25.333-2.047c0.69-3.076,1.086-6.287,1.152-9.508
				c0.552,0.229,1.075,0.539,1.529,0.889c0.251,0.193,0.549-0.171,0.411-0.412c-0.426-0.744-1.128-1.35-1.928-1.7
				c-0.028-4.693-0.776-9.371-2.383-13.644c-0.584-1.552-1.277-3.019-2.034-4.436c0.274-0.048,0.551-0.109,0.836-0.188
				c1.044-0.291,2.271-0.648,2.058-1.965c-0.056-0.345-0.519-0.261-0.618,0c-0.268,0.711-1.83,1.018-2.813,1.137
				c-1.313-2.285-2.867-4.384-4.619-6.333c0.142-0.177,0.087-0.48-0.167-0.555c-0.131-0.038-0.27-0.06-0.405-0.091
				c-1.511-1.608-3.184-3.094-4.982-4.486c1.742-0.886,3.301-1.518,3.515-1.011c0.118,0.28,0.57,0.277,0.568-0.077
				c-0.001-0.138-0.002-0.276-0.002-0.415c-0.001-0.179-0.118-0.297-0.273-0.359c-1.704-0.672-3.177,0.313-4.642,1.113
				c-0.03,0.017-0.062,0.03-0.093,0.046c-0.236-0.174-0.458-0.358-0.698-0.528c-0.591-0.419-1.198-0.819-1.81-1.213
				c0.098-0.194,0.009-0.463-0.271-0.468c-0.151-0.003-0.297,0.009-0.443,0.022C59.707,5.209,46.217,2.479,34.357,6.11
				c-9.115,1.117-16.991,8.484-23.693,14.081c-0.003,0.003-0.005,0.005-0.008,0.008c-0.414-0.326-0.862-0.555-1.427-0.589
				c-0.573-0.034-0.556,0.828,0,0.883c0.274,0.027,0.521,0.151,0.754,0.322c-3.027,3.005-3.747,7.296-4.816,11.342
				c-0.809,3.065-1.52,6.166-2.001,9.299c-0.327,0.509-0.654,1.019-1.042,1.491c-0.098,0.119,0.031,0.338,0.18,0.233
				c0.26-0.183,0.484-0.387,0.696-0.6c-0.243,1.801-0.394,3.614-0.44,5.435c-1.096,0.916-2.677,2.046-2.553,3.536
				c0.021,0.253,0.349,0.299,0.437,0.059c0.357-0.973,1.203-1.788,2.097-2.538c0,0.126-0.008,0.251-0.007,0.377
				c0.023,3.044,0.228,6.229,0.685,9.399c-0.209,0.535-0.412,1.073-0.709,1.576c-0.148,0.25,0.192,0.507,0.399,0.308
				c0.188-0.181,0.343-0.392,0.507-0.595c0.559,3.341,1.418,6.641,2.688,9.716c-0.026,0.236-0.035,0.471-0.016,0.7
				c0.015,0.183,0.26,0.178,0.281,0c0.003-0.023,0.011-0.049,0.014-0.072c0.906,2.077,2.01,4.039,3.336,5.836
				c-0.554,1.745-1.048,3.457-0.75,5.308c0.043,0.265,0.465,0.249,0.52,0c0.316-1.426,0.678-2.838,1.053-4.246
				c0.754,0.918,1.561,1.794,2.451,2.599c0.527,0.478,1.066,0.972,1.61,1.472c-0.261,1.54-0.368,3.082-0.167,4.603
				c0.039,0.292,0.512,0.437,0.576,0.078c0.217-1.232,0.45-2.453,0.691-3.668c2.19,2.013,4.516,4.106,6.984,5.971
				c-0.034,0.773-0.064,1.526-0.033,2.225c0.068,1.528,0.216,4.13,2.009,4.635c0.281,0.079,0.423-0.303,0.193-0.457
				c-1.275-0.849-1.299-3.448-1.202-5.695c2.446,1.757,5.028,3.258,7.764,4.197c0.008,0.071,0.019,0.143,0.026,0.214
				c0.029,0.296,0.488,0.415,0.56,0.076c0.008-0.036,0.009-0.074,0.016-0.11c2.144,0.665,4.375,1,6.709,0.827
				c0.043-0.003,0.081-0.019,0.123-0.026c0.483,0.077,0.963,0.079,1.405-0.195c0.517-0.321,0.713-0.874,0.617-1.411
				c1.117,2.206,1.955,4,3.165,5.828c-0.355,2.044-0.409,4.139,0.002,6.062c0.04,0.187,0.335,0.185,0.377,0
				c0.341-1.514,0.52-3.033,0.713-4.546c0.339,0.435,0.698,0.875,1.106,1.332c0.716,0.803,1.494,1.556,2.318,2.268
				c-0.184,0.81-0.306,1.602-0.104,2.471c0.062,0.268,0.505,0.283,0.557,0c0.11-0.592,0.245-1.184,0.389-1.776
				c1.669,1.331,3.509,2.499,5.452,3.521c-0.135,0.891-0.266,1.781-0.304,2.678c-0.009,0.223,0.288,0.227,0.361,0.049
				c0.325-0.799,0.55-1.569,0.72-2.334c1.691,0.845,3.446,1.589,5.225,2.237c-0.125,1.571-0.352,3.13-0.461,4.548
				c-0.031,0.406,0.543,0.427,0.667,0.09c0.521-1.416,0.682-2.852,0.723-4.312c1.647,0.569,3.303,1.063,4.933,1.488
				c0.312,0.448,0.635,0.888,0.977,1.306c1.452,1.775,3.507,3.25,5.67,1.654c0.236-0.174,0.101-0.539-0.202-0.478
				c-1.827,0.367-2.928,0.174-4.25-1.183c-0.297-0.305-0.575-0.628-0.844-0.96c0.172,0.041,0.346,0.086,0.517,0.126
				c2.173,0.508,4.37,0.787,6.576,0.889c0.552,0.416,1.126,0.807,1.747,1.138c0.309,0.165,0.777-0.034,0.747-0.429
				c-0.008-0.11-0.016-0.219-0.025-0.329c-0.011-0.152-0.102-0.268-0.218-0.333c1.38-0.012,2.76-0.093,4.139-0.229
				c1.312,0.923,4.505,2.24,4.552-0.438c0.002-0.082-0.028-0.141-0.062-0.194c1.617-0.294,3.226-0.649,4.819-1.058
				c1.511,1.077,2.894,1.403,3.642-0.09c0.144-0.288-0.143-0.564-0.428-0.428c-0.471,0.226-0.975,0.206-1.479,0.045
				c8.063-2.306,14.134-7.343,19.591-13.596c0.536-0.614,1.023-1.259,1.484-1.921c0.569,0.112,1.029,0.12,1.244-0.076
				c0.124-0.113,0.085-0.324-0.052-0.405c-0.2-0.118-0.424-0.226-0.645-0.335c3.664-5.749,4.885-12.967,5.861-19.563
				C121.011,69.095,120.646,60.359,113.729,57.977z M12.511,23.084c-0.168,0.215-0.346,0.422-0.503,0.645
				c-0.482,0.685-1.036,1.385-1.608,2.101C10.972,24.803,11.672,23.935,12.511,23.084z M7.841,34.522
				c0.47-2.028,0.92-4.103,1.494-6.103c0.038-0.131,0.083-0.243,0.123-0.369c1.231-1.844,2.635-3.587,3.969-5.153
				c0.802-0.942,1.609-1.893,2.42-2.84c0.598-0.522,1.2-1.041,1.803-1.555c0.106,0.122,0.215,0.245,0.332,0.364
				c0.528,0.536,1.169,0.944,1.806,1.351c-2.904,3.368-5.593,7.038-7.985,10.647c-0.695,1.048-1.396,2.1-2.066,3.169
				c-0.313,0.165-0.556,0.423-0.661,0.799c-0.573,0.594-1.138,1.22-1.716,1.872C7.514,35.974,7.673,35.246,7.841,34.522z
				 M7.003,38.482c0.017-0.018,0.036-0.035,0.054-0.053c0.237-0.249,0.453-0.517,0.677-0.778c-0.065,0.138-0.141,0.27-0.204,0.409
				c-0.217,0.485-0.487,1.033-0.74,1.605C6.858,39.27,6.929,38.875,7.003,38.482z M15.525,77.052
				c0.008,0.072,0.041,0.12,0.084,0.152c-0.002,0.006-0.003,0.011-0.005,0.017c-1.528-1.431-2.781-2.858-3.818-4.405
				c0.215-0.779,0.424-1.559,0.632-2.341c0.003,0.025,0.002,0.051,0.006,0.076c0.039,0.303,0.541,0.455,0.598,0.081
				c0.328-2.12,0.627-4.214,0.963-6.296c0.076,0.1,0.165,0.201,0.273,0.303c0.298,0.282,0.689,0.321,1.039,0.221
				c-0.013,0.064-0.04,0.119-0.041,0.192c-0.007,0.578-0.007,1.153,0.004,1.731c0.012,0.586-0.026,1.151,0.28,1.671
				c0.105,0.179,0.272,0.273,0.451,0.328C15.47,71.507,15.226,74.275,15.525,77.052z M39.205,90.823
				c-2.689-0.424-5.146-1.172-7.453-2.156c-0.02-0.108-0.038-0.215-0.058-0.322c0.156,0.016,0.323-0.076,0.351-0.293
				c0.548-4.268,0.74-8.61,1.207-12.895c0.494-4.535,1.283-9.035,1.379-13.605c0.011-0.519-0.789-0.517-0.805,0
				c-0.135,4.572-0.964,9.071-1.497,13.605c-0.405,3.443-1.061,7.066-1.034,10.589c-0.119-0.933-0.245-1.858-0.51-2.77
				c-0.488-1.677-1.142-3.139-1.201-4.924c-0.015-0.46-0.681-0.455-0.711,0c-0.172,2.63,1.107,5.196,1.45,7.789
				c0.103,0.781,0.225,1.563,0.35,2.346c-2.567-1.202-4.95-2.705-7.25-4.406c-0.356-1.412-1.074-2.608-2.563-3.455
				c-0.299-0.17-0.53,0.257-0.264,0.452c0.781,0.572,1.286,1.285,1.611,2.082c-1.892-1.47-3.742-3.062-5.607-4.722
				c0.355-1.647,0.717-3.296,1.088-4.959c0.133-0.597-0.781-0.852-0.919-0.253c-0.181,0.782-0.395,1.576-0.621,2.378
				c0.553-4.429,1.137-8.648,2.406-13.01c0.646-2.219,1.21-4.454,1.747-6.702c0.518-2.171,1.44-4.234,1.792-6.439
				c0.076-0.476-0.65-0.683-0.731-0.201c-0.368,2.204-1.312,4.256-1.839,6.426c-0.617,2.543-1.292,5.067-2.055,7.57
				c-0.158,0.518-0.31,1.039-0.458,1.562c-0.21-0.283-0.563-0.416-0.909-0.376c0.078-0.247,0.055-0.525-0.15-0.801
				c-0.062-0.084-0.098-0.115-0.118-0.126c0.019-0.006,0.047-0.035,0.076-0.142c0.067-0.247,0.198-0.472,0.258-0.724
				c0.111-0.461-0.07-1.232,0.281-1.568c0.964-0.922-0.45-2.269-1.442-1.442c-0.051,0.043-0.087,0.089-0.132,0.133
				c0.278-1.313,0.591-2.625,0.962-3.94c0.639-2.266,1.393-4.488,2.195-6.696c0.896-2.467,1.235-5.175,1.911-7.716
				c0.074-0.278-0.344-0.391-0.429-0.118c-0.784,2.492-1.342,5.13-2.295,7.554c-0.797,2.028-1.516,4.078-2.159,6.16
				c-0.152-0.152-0.384-0.22-0.58-0.08c-1.526,1.09-2.483,2.712-2.252,4.634c0.054,0.453,0.276,0.839,0.74,0.972
				c0.179,0.052,0.334,0.043,0.511,0.003c-0.602,2.369-1.07,4.809-1.162,7.205c-0.367,1.448-0.769,2.885-1.191,4.317
				c-1.024-1.74-1.837-3.655-2.507-5.941c-0.015-0.052-0.029-0.107-0.044-0.16c0.274-0.508,0.539-1.021,0.821-1.526
				c0.001,0.004,0,0.008,0.001,0.011c0.073,0.404,0.647,0.271,0.675-0.091c0.045-0.586,0.151-1.158,0.288-1.722
				c0.793-1.498,1.667-2.955,1.586-4.688c0.112-0.332,0.219-0.664,0.314-1c0.795-2.806,1.402-5.654,2.364-8.411
				c2.021-5.791,4.464-11.136,7.465-16.467c0.264-0.469-0.452-0.889-0.722-0.422c-3.182,5.512-5.773,11.032-7.877,17.062
				c-1.112,3.187-1.716,6.516-2.772,9.719c-0.55,1.666-1.391,3.343-1.393,5.104c-0.34,0.555-0.677,1.088-0.981,1.591
				c-0.767-2.794-1.369-5.751-1.774-8.712c0.215-0.653,0.443-1.303,0.681-1.949c0.679-1.188,1.371-2.378,2.305-3.275
				c0.433-0.415-0.224-1.069-0.657-0.657c-0.039,0.037-0.073,0.079-0.111,0.117c1.141-2.616,2.413-5.178,3.728-7.688
				c1.35-2.578,2.367-5.317,3.805-7.85c1.219-2.147,3.057-4.266,3.734-6.66c0.119-0.422-0.527-0.598-0.655-0.181
				c-0.913,2.977-3.448,5.553-4.851,8.323c-1.385,2.736-2.688,5.486-4.138,8.189c-1.365,2.545-2.409,5.254-3.495,7.926
				c-0.201,0.494-0.41,0.987-0.615,1.483c-0.152-1.499-0.259-2.985-0.304-4.435c-0.036-1.163-0.012-2.325,0.052-3.486
				c0.976-0.888,1.966-1.759,2.936-2.653c-0.542,1.314-1.165,2.58-1.947,3.551c-0.216,0.269,0.113,0.608,0.381,0.381
				c1.326-1.123,1.846-2.938,2.537-4.478c0.096-0.213,0.182-0.428,0.274-0.642c0.096-0.094,0.196-0.183,0.291-0.278
				c0.163-0.162,0.142-0.358,0.042-0.504c0.836-2.012,1.599-4.034,2.718-5.932c1.347-2.285,2.781-4.54,3.975-6.91
				c1.071-2.128,1.874-4.517,4.128-5.681c0.353-0.182,0.042-0.713-0.312-0.533c-1.646,0.84-2.591,2.203-3.43,3.814
				c-1.15,2.209-2.299,4.373-3.586,6.511c-1.33,2.209-2.638,4.332-3.575,6.739c-0.258,0.662-0.52,1.394-0.796,2.144
				c-1.159,1.13-2.35,2.233-3.555,3.322c0.032-0.404,0.064-0.808,0.106-1.211c0.144,0.192,0.411,0.231,0.61,0.058
				c0.177-0.154,0.354-0.308,0.532-0.462c0.174-0.151-0.017-0.386-0.205-0.353c-0.058,0.01-0.117,0.021-0.175,0.031
				c0.157-2.002,1.292-4.204,2.176-5.904c0.466-0.897,0.987-1.771,1.524-2.637c0.011-0.01,0.022-0.021,0.033-0.031
				c0.02-0.006,0.043-0.013,0.063-0.018c0.093-0.027,0.135-0.097,0.154-0.174c0.508-0.433,1.036-0.843,1.576-1.268
				c0.342-0.269-0.058-0.838-0.42-0.695c0.421-0.632,0.844-1.261,1.264-1.887c2.156-3.213,4.563-6.519,7.143-9.572
				c0.032,0.022,0.065,0.042,0.097,0.064c0.189,0.132,0.468-0.136,0.326-0.326c-0.032-0.042-0.072-0.075-0.104-0.116
				c1.035-1.209,2.096-2.38,3.183-3.479c0.365-0.369-0.201-0.935-0.569-0.569c-1.091,1.085-2.158,2.228-3.198,3.413
				c-0.63-0.592-1.338-1.095-1.902-1.764c2.161-1.819,4.365-3.582,6.69-5.216c2.339-1.643,4.803-2.615,7.329-3.467
				C36.985,8.11,41.701,7.238,46.44,7.68c7.128,0.665,13.766,2.589,19.883,6.036c-1.153,0.861-2.313,1.726-3.695,1.967
				c-0.416,0.073-0.324,0.801,0.101,0.744c1.738-0.231,3.191-1.168,4.642-2.129c0.912,0.546,1.811,1.128,2.698,1.745
				c-0.319,0.245-0.65,0.477-1.038,0.667c-0.392,0.191-0.112,0.881,0.301,0.714c0.218-0.089,0.778-0.404,1.503-0.816
				c1.471,1.074,2.854,2.205,4.112,3.419c-0.578,0.409-1.146,0.834-1.851,1.042c-0.612,0.18-0.356,1.117,0.264,0.957
				c0.907-0.234,1.581-0.744,2.34-1.213c1.51,1.547,2.857,3.208,4.046,4.986c-0.128,0.287-0.057,0.676,0.332,0.794
				c0.087,0.027,0.171,0.049,0.257,0.074c1.587,2.536,2.873,5.299,3.856,8.316c0.327,1.004,0.551,2.009,0.711,3.014
				c-0.733-0.043-1.486,0-2.172,0.053c-1.035,0.08-1.957,0.657-3.002,0.603c-0.512-0.027-0.498,0.743,0,0.789
				c1.036,0.095,1.972-0.372,3.002-0.394c0.772-0.016,1.554,0.071,2.323,0.033c0.202,1.82,0.199,3.641,0.129,5.461
				c-0.185-0.002-0.375,0.006-0.582,0.038c-0.552,0.084-0.4,0.944,0.129,0.951c0.138,0.002,0.273,0.026,0.409,0.039
				c-0.177,3.55-0.505,7.097,0.058,10.633c-0.156,0.015-0.309,0.031-0.463,0.047c-6.556-0.324-13.398,0.749-19.699,1.474
				c-7.993,0.919-16.652,3.769-23.92,7.195c-2.111,0.995-3.341,2.806-3.992,4.944C37.061,69.81,37,69.756,36.928,69.71
				c-0.43-0.276-0.817,0.4-0.398,0.681c0.156,0.105,0.265,0.262,0.341,0.456c-0.252,1.16-0.362,2.388-0.366,3.617
				c-0.282,1.013-0.598,1.941-0.699,2.423c-0.722,3.442-1.791,7.123-1.487,10.664c0.046,0.53,0.767,0.525,0.82,0
				c0.343-3.404,0.859-6.79,1.54-10.143c0.147,1.291,0.37,2.518,0.624,3.584c0.876,3.675,1.286,7.047,2.924,10.417
				C40.017,91.119,39.689,90.899,39.205,90.823z M50.859,101.111c-0.19-0.173-0.378-0.358-0.566-0.542
				c0.361-1.872,0.494-3.753-0.079-5.652c-0.107-0.355-0.469-0.414-0.726-0.286c-0.114-2.184-0.167-4.379-0.355-6.557
				c-0.369-4.282-0.419-8.523-0.473-12.804c0.912,0.449,1.864,0.83,2.853,1.155c0.206,4.524,0.503,9.046,0.662,13.571
				c0.153,4.372,0.924,8.618,1.307,12.951C52.51,102.396,51.61,101.794,50.859,101.111z M60.049,105.871
				c-0.156-0.845-0.342-1.686-0.512-2.53c-0.023-0.116-0.035-0.233-0.057-0.349c0.67,0.95,1.06,2.021,1.263,3.158
				C60.514,106.058,60.285,105.964,60.049,105.871z M78.089,109.851c-0.035-0.124-0.07-0.247-0.104-0.37
				c-0.054-0.19-0.304-0.262-0.444-0.117c-0.204,0.211-0.86-1.349-1.507-3.081c0.438,0.368,0.845,0.769,1.177,1.287
				c0.454,0.708,0.727,1.513,1.1,2.264C78.237,109.838,78.163,109.847,78.089,109.851z M83.573,113.254
				c0.569-0.078,1.137-0.167,1.705-0.263C84.824,113.456,84.224,113.488,83.573,113.254z M95.87,105.955
				c-0.143-0.381-0.248-0.779-0.325-1.185c0.091,0.07,0.183,0.137,0.271,0.213c0.269,0.233,0.52,0.444,0.768,0.641
				C96.348,105.738,96.11,105.847,95.87,105.955z M116.313,74.54c-0.718,6.349-1.923,13.776-5.767,19.139
				c-0.888-0.208-2.082-0.311-2.3,0.739c-0.13,0.626,0.787,0.89,0.964,0.266c0.034-0.121,0.259-0.114,0.593-0.039
				c-0.106,0.13-0.205,0.265-0.315,0.391c-1.409,1.624-2.899,3.204-4.484,4.674c-0.386-0.135-0.77-0.29-1.151-0.526
				c-0.965-0.599-1.873-1.28-2.708-2.051c-0.557-0.514-1.386,0.308-0.834,0.834c1.011,0.965,2.254,2.138,3.615,2.713
				c-1.883,1.638-3.904,3.1-6.078,4.291c-0.528-0.328-0.987-0.752-1.496-1.117c-0.275-0.197-0.635-0.375-1.003-0.564
				c-0.037-0.418-0.066-0.834-0.1-1.238c-0.172-2.008-0.662-3.968-0.734-6.003c-0.013-0.374-0.531-0.358-0.57,0
				c-0.25,2.269,0.288,4.555,0.607,6.79c-0.382-0.249-0.707-0.54-0.862-0.917c-0.227-0.553-1.132-0.333-0.919,0.253
				c0.377,1.035,1.169,1.52,1.993,2.049c0.122,0.678,0.297,1.354,0.604,1.949c-0.896,0.379-1.816,0.715-2.765,0.991
				c-0.516,0.15-1.052,0.294-1.585,0.439c-0.406-1.304-0.594-2.781-0.787-3.811c-0.518-2.761-0.7-5.568-1.203-8.327
				c-0.063-0.344-0.617-0.262-0.606,0.082c0.121,3.751,0.642,7.566,1.578,11.199c0.085,0.33,0.163,0.697,0.257,1.066
				c-0.508,0.133-1.029,0.257-1.548,0.383c-1.234-1.31-2.382-2.693-3.678-3.948c-0.173-0.168-0.376-0.146-0.523-0.041
				c-0.366-0.88-0.737-1.742-1-2.678c-0.641-2.28-0.96-4.636-1.258-6.981c-0.083-0.654-1.123-0.663-1.039,0
				c0.555,4.361,1.526,8.1,3.33,12.082c0.048,0.106,0.178,0.16,0.286,0.164l0.403,0.016c0.316,0.012,0.326-0.412,0.07-0.514
				c-0.108-0.043-0.229-0.429-0.321-0.768c0.561,0.712,1.431,1.826,2.434,2.971c-1.651,0.369-3.338,0.684-5.033,0.923
				c-0.004-0.004,0-0.013-0.006-0.017c-1.73-1.346-2.135-3.944-2.806-5.912c-1.51-4.423-3.058-8.739-3.415-13.445
				c-0.041-0.536-0.876-0.545-0.844,0c0.09,1.508,2.955,17.311,5.922,19.521c-0.559,0.066-1.115,0.119-1.672,0.166
				c-0.058-0.084-0.11-0.163-0.149-0.229c-0.594-1.001-0.949-2.113-1.667-3.046c-0.685-0.892-1.401-1.172-2.272-1.823
				c-0.011-0.008-0.024-0.009-0.035-0.016c-0.432-1.225-0.783-2.276-0.869-2.526c-1.439-4.157-2.483-8.368-3.414-12.663
				c-0.121-0.557-0.935-0.313-0.844,0.233c0.834,5.004,2.443,9.709,3.779,14.575c0.473,1.725,0.851,4.365,2.354,5.637
				c-1.099,0.006-2.188-0.02-3.243-0.124c-0.128-0.013-0.258-0.035-0.386-0.049c-0.532-0.745-1.042-1.504-1.52-2.282
				c-0.32-0.884-0.706-1.751-1.024-2.654c-0.431-1.225-0.759-2.471-1.054-3.726c0.345,0.02,0.69-0.127,0.886-0.485
				c0.463-0.844,0.198-1.75-0.533-2.346c-0.307-0.25-0.688-0.354-1.051-0.298c-0.921-4.115-2.276-8.186-2.825-12.365
				c-0.076-0.578-0.995-0.59-0.922,0c0.497,4.024,1.699,7.977,2.596,11.936c0.091,0.401,0.175,0.802,0.26,1.203
				c-0.13,0.408-0.07,0.883,0.254,1.178c0.312,1.467,0.641,2.929,1.128,4.356c0.118,0.345,0.26,0.677,0.397,1.011
				c-0.121,0.103-0.186,0.259-0.112,0.435c0.556,1.317,1.225,2.601,2.009,3.8c0.003,0.007,0.006,0.014,0.009,0.021
				c-1.34-0.228-2.684-0.544-4.01-0.933c-0.828-2.816-1.731-5.611-2.444-8.456c0.033-0.103,0.074-0.2,0.082-0.323
				c0.041-0.589,0.063-1.159,0.038-1.75c-0.026-0.613-0.174-1.151-0.286-1.746c-0.076-0.405-0.406-0.627-0.77-0.687
				c-0.735-4.225-1.599-8.423-2.306-12.655c-0.085-0.507-0.844-0.288-0.768,0.212c0.645,4.271,1.368,8.531,2.076,12.792
				c-0.071,0.095-0.127,0.205-0.153,0.338c-0.112,0.592-0.26,1.133-0.286,1.746c-0.025,0.592-0.003,1.159,0.038,1.75
				c0.058,0.838,0.724,1.209,1.343,1.143c0.598,2.588,1.439,5.176,2.708,7.408c-0.345-0.108-0.688-0.217-1.029-0.333
				c-0.356-1.189-0.703-2.402-1.551-3.212c-0.345-0.33-0.867,0.189-0.525,0.525c0.62,0.607,0.854,1.47,1.064,2.336
				c-0.951-0.344-1.884-0.712-2.79-1.093c-0.088-1.768-0.425-2.712-1.691-4.326c-0.188-0.239-0.514-0.14-0.682,0.064
				c-0.361-2.274-0.476-4.58-0.788-6.861c-0.328-2.395-0.847-4.763-1.335-7.129c-0.238-1.153-0.452-2.311-0.695-3.463
				c-0.259-1.23-0.913-2.547-0.974-3.791c-0.022-0.444-0.701-0.45-0.695,0c0.022,1.83,0.816,3.761,1.153,5.58
				c0.5,2.703,1.098,5.393,1.508,8.111c0.551,3.651,0.752,7.239,1.604,10.77c-0.988-0.391-2.005-0.799-3.005-1.241
				c0.016-0.212,0.033-0.424,0.049-0.642c0.145-1.9,1.014-3.541-0.085-5.299c-0.298-0.477-1.03-0.053-0.755,0.442
				c0.742,1.337,0.205,3.4-0.047,5.11c-0.482-0.227-0.95-0.464-1.409-0.711c0.072-4.397-0.588-8.78-0.763-13.174
				c-0.179-4.493-0.726-8.943-1.12-13.417c1.991,0.613,4.112,1.033,6.319,1.396c6.93,1.139,13.466,1.594,20.514,1.79
				c5.809,0.161,12.022-1.125,17.552-3.011c2.584-0.881,5.03-2.176,7.45-3.461c1.352-0.717,2.952-1.398,4.191-2.302
				c0.881-0.643,0.586-1.164,1.774-1.635c0.301-0.119,0.303-0.659-0.084-0.622c-1.44,0.14-2.016,0.867-3.358,1.585
				c-2.136,1.142-4.424,2.097-6.597,3.178c-6.046,3.008-12.424,2.822-19.011,2.996c-6.211,0.164-12.649,0.136-18.748-0.999
				c-4.619-0.86-9.171-1.162-13.418-2.604c-0.09-0.207-0.341-0.27-0.533-0.192c-1.814-0.662-3.572-1.542-5.251-2.788
				c-0.131-0.097-0.317,0.094-0.224,0.224c1.474,2.086,3.24,3.575,5.22,4.685c-0.093,8.141,0.054,16.444,1.29,24.503
				c-1.101-1.231-2.136-2.612-3.075-4.083c0.142-0.491,0.301-0.981,0.495-1.467c0.095-0.241-0.106-0.568-0.351-0.618
				c-0.103-0.021-0.207-0.042-0.31-0.063c-0.514-0.104-0.743,0.469-0.457,0.779c-0.029,0.07-0.054,0.145-0.083,0.215
				c-0.284-0.484-0.556-0.974-0.817-1.47c0-0.005-0.001-0.009-0.002-0.014c-0.248-2.144-0.282-4.306-0.29-6.461
				c-0.008-2.166-0.009-4.332-0.033-6.498c-0.011-0.962-0.128-1.977-0.029-2.935c0.099-0.971,0.456-1.7,0.455-2.656
				c0-0.481-0.715-0.474-0.742,0c-0.098,1.74-0.549,3.34-0.557,5.127c-0.011,2.321-0.043,4.642-0.049,6.963
				c-0.003,1.342,0.006,2.685,0.073,4.025c-0.88-2.032-1.549-4.095-1.932-6.06c-0.574-2.945-1.592-5.677-1.73-8.666
				c-0.114-2.47-0.039-5.535,1.835-7.212c1.356-1.213,3.476-1.776,5.185-2.423c7.213-2.729,14.125-4.771,21.794-5.377
				c4.039-0.319,8.03-1.282,12.102-1.543c1.142-0.073,2.275-0.109,3.403-0.15c6.342,0.502,12.735,0.149,19.042,1.033
				c3.017,0.423,7.875,0.381,10.509,2.184C116.702,64.124,116.721,70.932,116.313,74.54z"/>
			<path d="M94.114,61.33c-6.288-1.403-10.664-1.177-17.011,0.27c-0.308,0.07-0.389,0.4-0.291,0.645
				c-2.952-0.079-5.848-0.37-8.889-0.383c-3.3-0.014-12.686,0.734-14.562,4.512c-4.032,8.12,22.623,8.308,25.787,8.068
				c3.795-0.288,28.826-0.849,24.411-8.961C101.926,62.479,96.997,61.973,94.114,61.33z M98.687,69.2
				c-1.651,0.695-4.025,0.754-5.798,1.114c-4.794,0.973-9.65,1.119-14.503,1.588c-4.441,0.429-8.946,0.132-13.382-0.425
				c-1.372-0.172-2.978-0.413-4.442-0.894c0.944-0.299,1.884-0.598,2.965-0.666c1.719-0.108,3.61-0.451,5.304-0.308
				c3.084,0.26,5.704,1.421,8.853,0.904c3.279-0.539,6.137-2.269,9.328-3.043c3.595-0.872,7.163,0.231,10.717,0.521
				c0.419,0.034,0.616-0.641,0.221-0.815c-3.011-1.326-6.206-1.572-9.471-1.309c-3.314,0.267-6.313,2.113-9.492,2.976
				c-2.367,0.642-4.286,0.616-6.687,0.171c-1.431-0.266-2.843-0.64-4.312-0.609c-1.777,0.038-3.618,0.356-5.367,0.644
				c-1.133,0.187-2.046,0.682-2.996,1.185c-0.581-0.25-1.124-0.548-1.598-0.911c-0.737-0.564-2.336-1.087-1.364-2.539
				c0.334-0.499,1.916-0.734,2.536-0.913c5.137-1.482,10.451-1.806,15.766-1.909c4.638-0.09,9.124-0.901,13.765-0.778
				c0.142,0.004,0.179-0.226,0.034-0.253c-0.854-0.158-1.626-0.319-2.379-0.46c4.109,0.23,8.186,0.883,12.085,2.339
				C101.394,65.897,102.367,67.652,98.687,69.2z"/>
			<path d="M38.853,24.764c0.026-0.012,0.031-0.033,0.049-0.05c1.19-0.537,2.175-1.222,2.685-1.954
				c0.251-0.361-0.227-0.747-0.567-0.566c-1.415,0.75-3.677,1.873-5.794,2.215c-2.306,0.016-4.532-0.402-3.674-3.116
				c0.482-1.526,1.098-2.775,2.484-3.653c0.991-0.628,1.194-0.186,2.193-0.316c0.337-0.044,0.362-0.558,0-0.547
				c-0.161-0.067-0.321-0.135-0.482-0.202c0.801,0.033,1.528,0.415,2.32,0.752c0.371,0.158,0.702-0.376,0.323-0.553
				c-0.583-0.273-1.259-0.665-1.937-0.903c1.06-0.489,2.686-0.65,3.44,0.055c1.325,1.238,0.51,2.606,0.573,4.125
				c0.01,0.25,0.356,0.368,0.488,0.132c0.985-1.768,1.167-3.911-0.694-5.156c-0.727-0.486-1.424-0.388-2.238-0.203
				c-0.763,0.174-1.599,0.362-2.208,0.877c-0.106-0.018-0.213-0.032-0.317-0.036c-1.325-0.053-2.515,1.071-3.477,1.819
				c-1.628,1.265-3.06,3.574-2.402,5.751c0.693,2.29,3.314,2.83,5.964,2.445C36.712,25.592,37.821,25.235,38.853,24.764z"/>
			<path d="M48.149,25.353c0.766,0.187,1.589,0.229,2.363,0.103c1.103-0.181,2.238-0.056,3.31-0.339
				c0.359-0.095,0.558-0.478,0.471-0.83c-0.03-0.122-0.06-0.244-0.09-0.366c-0.111-0.451-0.662-0.433-0.9-0.118
				c-0.003,0.004-0.007,0.009-0.01,0.013c-1.063,0.081-2.09,0.127-3.161,0.259c-1.247,0.154-2.748-0.049-3.198-1.389
				c-0.584-1.74,0.603-4.316,2.367-4.867c0.286-0.089,0.251-0.569-0.074-0.545c-2.486,0.183-3.996,3.185-3.607,5.467
				C45.857,24.118,46.808,25.026,48.149,25.353z"/>
			<path d="M24.367,53.452c-1.215,4.315-1.323,8.948-2.212,13.347c-0.847,4.188-1.905,8.449-1.665,12.752
				c0.017,0.309,0.451,0.304,0.477,0c0.39-4.58,1.217-9.004,2.108-13.506c0.807-4.081,0.892-8.401,2.016-12.394
				C25.221,53.186,24.498,52.987,24.367,53.452z"/>
			<path d="M28.166,53.551c0.004-0.563-0.869-0.564-0.875,0c-0.066,5.894-1.144,11.605-2.121,17.395
				c-0.454,2.69-0.553,5.434-1.046,8.116c-0.338,1.834-0.461,2.906,0.349,4.639c0.125,0.267,0.57,0.136,0.553-0.15
				c-0.291-4.943,0.734-10.259,1.587-15.182C27.463,63.463,28.13,58.539,28.166,53.551z"/>
			<path d="M29.83,56.551c-0.009,2.744,0.152,5.304-0.339,8.026c-0.468,2.591-0.748,5.195-1.048,7.81
				c-0.485,4.221-1.883,9.797,0.097,13.775c0.1,0.2,0.406,0.097,0.408-0.11c0.016-2.083-0.258-4.144-0.183-6.265
				c0.099-2.79,0.468-5.559,0.772-8.332c0.305-2.783,0.789-5.529,1.143-8.301c0.279-2.186,0.024-4.41-0.052-6.602
				C30.609,56.04,29.832,56.036,29.83,56.551z"/>
		</g>
	</g>
</g>
</svg>