<?xml version="1.0" encoding="iso-8859-1"?>
<!-- Uploaded to: SVG Repo, www.svgrepo.com, Generator: SVG Repo Mixer Tools -->
<svg fill="#000000" height="800px" width="800px" version="1.1" id="Layer_1" xmlns="http://www.w3.org/2000/svg" xmlns:xlink="http://www.w3.org/1999/xlink" 
	 viewBox="0 0 295.23 295.23" xml:space="preserve">
<path id="XMLID_448_" d="M292.735,84.751c-0.325-3.182-0.921-6.448-1.796-9.771c-4.004-15.217-13.469-30.856-26.651-44.039
	c-16.379-16.378-36.276-26.753-54.253-28.503c-8.034-1.598-16.452-2.414-25.197-2.414c-44.451,0-90.879,20.934-127.379,57.434
	C26.849,88.07,6.98,125.994,1.516,164.244c-5.692,39.846,4.758,75.376,29.427,100.043c20.227,20.227,47.7,30.918,79.45,30.918
	c44.451,0,90.879-20.934,127.378-57.434c30.612-30.611,50.48-68.535,55.944-106.785C296.042,114.705,295.669,99.144,292.735,84.751z
	 M260.753,98.118c-1.905,1.905-5.184,2.305-7.599,2.305c-11.166,0-26.225-7.844-38.363-19.983
	c-19.128-19.129-23.308-40.332-17.678-45.962c1.906-1.906,5.184-2.306,7.6-2.306c0.347,0,0.709,0.03,1.063,0.045
	c14.647,3.222,27.319,9.957,37.3,19.938c10.01,10.01,16.743,22.751,19.959,37.358C263.213,93.433,262.415,96.456,260.753,98.118z
	 M216.558,216.558c-30.461,30.461-70.149,48.647-106.166,48.647c-23.62,0-43.758-7.653-58.237-22.131
	c-17.828-17.829-25.266-44.318-20.941-74.588c4.552-31.866,21.407-63.763,47.458-89.815c25.227-25.227,56.779-42.021,87.336-47.053
	c-1.786,7.825-1.533,16.682,0.918,25.996c4.004,15.216,13.469,30.856,26.65,44.038c18.015,18.015,40.286,28.77,59.577,28.77
	c3.664,0,7.164-0.386,10.469-1.139C258.558,160.301,241.918,191.199,216.558,216.558z"/>
</svg>