<?xml version="1.0" encoding="iso-8859-1"?>
<!-- Uploaded to: SVG Repo, www.svgrepo.com, Generator: SVG Repo Mixer Tools -->
<svg fill="#000000" height="800px" width="800px" version="1.1" id="Layer_1" xmlns="http://www.w3.org/2000/svg" xmlns:xlink="http://www.w3.org/1999/xlink" 
	 viewBox="0 0 512.427 512.427" xml:space="preserve">
<g transform="translate(1 1)">
	<g>
		<g>
			<path d="M349.08,189.324v-61.897c0-3.531-1.625-6.25-4.313-7.597L303.853,84.76c-4.372-3.789-9.242-7.975-14.507-11.846V33.56
				c0-3.413-1.707-5.973-4.267-7.68l-51.2-25.6c-2.56-1.707-5.973-1.707-8.533,0c-2.56,1.707-4.267,5.12-4.267,7.68v65.235
				c-5.119,3.792-9.956,7.867-14.507,11.565l-40.914,35.069c-2.688,1.348-4.313,4.066-4.313,7.597v61.897
				c-14.967,5.23-25.6,19.4-25.6,36.236v247.467c0,21.333,17.067,38.4,38.4,38.4H336.28c21.333,0,38.4-17.067,38.4-38.4V225.56
				C374.68,208.724,364.047,194.554,349.08,189.324z M238.147,204.227h34.133v153.6c0,5.12-4.267,8.533-8.533,8.533H246.68
				c-5.12,0-8.533-4.267-8.533-8.533V204.227z M280.813,187.16h-51.2h-51.2v-51.2h153.6v51.2H280.813z M238.147,21.613L272.28,38.68
				v23.893c-11.947-5.12-22.187-5.12-34.133,0V21.613z M217.667,97.56c5.55-4.696,11.741-10.033,18.145-14.194
				c0.209-0.103,0.419-0.208,0.628-0.313c2.287-1.48,4.437-2.699,6.509-3.712c4.102-1.923,8.225-3.115,12.264-3.115
				c12.8,0,26.453,11.947,37.547,21.333l24.747,21.333H192.92L217.667,97.56z M174.147,204.227h46.933v153.6
				c0,14.507,11.947,25.6,25.6,25.6h17.067c14.507,0,25.6-11.093,25.6-25.6v-153.6h46.933c11.947,0,21.333,9.387,21.333,21.333
				v141.181c-26.397,2.434-38.574,16.084-48.64,26.925l-0.853,0.853l-17.067,17.067c-7.68,7.68-22.187,7.68-29.867,0l-4.267-4.267
				l-0.853-0.853c-11.947-8.533-27.307-7.68-35.84,0c-4.267,3.413-11.093,3.413-15.36,0c-11.093-7.68-27.307-7.68-36.693,0.853
				l-4.267,4.267c-3.496,3.496-6.2,5.001-11.093,5.605V225.56C152.813,213.613,162.2,204.227,174.147,204.227z M336.28,494.36
				H174.147c-11.947,0-21.333-9.387-21.333-21.333v-38.759c8.651-0.835,15.671-3.364,22.187-9.881l4.267-4.267
				c3.413-3.413,10.24-2.56,14.507,0c9.387,8.533,25.6,8.533,36.693,0c2.56-2.56,9.387-3.413,14.507,0l4.267,4.267
				c7.68,6.827,17.067,11.093,27.307,11.093c10.24,0,19.627-4.267,26.453-11.093l17.067-17.067c0.853,0,0.853-0.853,1.707-1.707
				c8.969-10.464,17.285-19.618,35.84-21.729v89.143C357.613,484.973,348.227,494.36,336.28,494.36z"/>
			<path d="M212.547,460.227c-5.12,0-8.533,3.413-8.533,8.533s3.413,8.533,8.533,8.533s8.533-3.413,8.533-8.533
				S217.667,460.227,212.547,460.227z"/>
			<path d="M246.68,443.16c-5.12,0-8.533,3.413-8.533,8.533c0,5.12,3.413,8.533,8.533,8.533s8.533-3.413,8.533-8.533
				C255.213,446.573,251.8,443.16,246.68,443.16z"/>
			<path d="M297.88,460.227c-5.12,0-8.533,3.413-8.533,8.533s3.413,8.533,8.533,8.533s8.533-3.413,8.533-8.533
				S303,460.227,297.88,460.227z"/>
			<path d="M332.013,426.093c-5.12,0-8.533,3.413-8.533,8.533s3.413,8.533,8.533,8.533s8.533-3.413,8.533-8.533
				S337.133,426.093,332.013,426.093z"/>
		</g>
	</g>
</g>
</svg>