<?xml version="1.0" encoding="iso-8859-1"?>
<!-- Uploaded to: SVG Repo, www.svgrepo.com, Generator: SVG Repo Mixer Tools -->
<svg fill="#000000" height="800px" width="800px" version="1.1" id="Layer_1" xmlns="http://www.w3.org/2000/svg" xmlns:xlink="http://www.w3.org/1999/xlink" 
	 viewBox="0 0 512 512" xml:space="preserve">
<g>
	<g>
		<path d="M464.99,141.01C444.724,96.788,402.35,22.601,346.257,22.601c-36.747,0-67.606,31.838-90.219,66.233
			c-28.473-43.381-59.537-66.233-90.293-66.233c-30.872,0-61.052,21.972-89.698,65.308c-2.316,3.503-1.352,8.22,2.15,10.536
			c3.505,2.318,8.221,1.354,10.537-2.15c17.637-26.681,45.315-58.487,77.011-58.487c33.334,0,62.291,34.647,81.405,65.343
			c-5.274,8.979-9.968,17.853-14.043,26.117c-23.084-41.11-48.325-66.114-67.362-66.114c-23.353,0-55.488,37.191-81.867,94.75
			c-28.441,62.06-43.322,130.359-43.322,165.749c0,36.235,15.743,70.69,43.195,94.53c1.44,1.25,6.992,4.088,10.728-0.755
			c2.565-3.326,2.415-7.974-0.755-10.728c-24.124-20.949-37.959-51.219-37.959-83.047c0-33.741,14.406-99.333,41.939-159.413
			c16.079-35.086,31.091-55.554,40.853-66.545c12.658-14.254,22.344-19.332,27.189-19.332c9.359,0,33.588,18.548,59.339,68.06
			c-1.774,3.999-3.512,8.053-5.21,12.155c-20.33-41.368-38.124-58.782-45.168-64.551c-0.112-0.091-0.226-0.18-0.344-0.266
			c-5.725-4.168-12.393-3.993-17.859,0.493c-7.551,6.26-27.499,26.021-49.583,74.21c-26.641,58.136-41.018,123.347-41.018,155.19
			c0,55.054,44.789,99.843,99.843,99.843c14.445,0,28.776-3.166,41.825-9.195c1.88,2.866,3.836,5.677,5.885,8.416
			c-14.818,7.154-31.141,10.916-47.71,10.916c-18.6,0-36.991-4.751-53.186-13.738c-3.672-2.038-8.302-0.713-10.338,2.959
			c-2.038,3.672-0.713,8.3,2.958,10.338c18.447,10.237,39.392,15.648,60.566,15.648c20.101,0,39.888-4.865,57.625-14.089
			c5.962,6.587,12.447,12.688,19.384,18.25c-23.239,13.875-49.66,21.185-77.01,21.185C82.737,474.191,15.208,406.66,15.208,323.654
			c0-45.653,19.009-118.69,46.227-177.612c1.761-3.812,0.098-8.331-3.714-10.092c-3.813-1.762-8.331-0.098-10.092,3.715
			C19.585,200.374,0,276.033,0,323.654c0,91.392,74.353,165.744,165.744,165.744c32.297,0,63.43-9.241,90.32-26.756
			c25.974,16.913,56.954,26.756,90.193,26.756c91.391,0,165.743-74.353,165.743-165.744C512,276.512,492.67,201.405,464.99,141.01z
			 M165.744,408.29c-46.668,0-84.635-37.967-84.635-84.635c0-30.233,13.891-92.678,39.636-148.854
			c20.344-44.394,37.965-62.484,44.997-68.448c24.696,20.955,46.42,71.537,46.503,71.692c-9.749,26.249-17.758,53.533-23.29,78.999
			c-7.424-2.629-15.201-3.977-23.209-3.977c-38.432,0-69.7,31.268-69.7,69.7s31.268,69.7,69.7,69.7
			c9.414,0,18.722-1.917,27.315-5.573c2.017,4.867,4.258,9.615,6.713,14.237C189.1,405.823,177.468,408.29,165.744,408.29z
			 M187.874,372.545c-6.93,3.078-14.479,4.713-22.13,4.713c-30.048,0-54.492-24.445-54.492-54.492s24.444-54.492,54.492-54.492
			c7,0,13.773,1.297,20.178,3.857c-3.491,19.059-5.411,36.678-5.411,51.523C180.512,340.665,183.091,357.085,187.874,372.545z
			 M346.256,474.191c-83.006,0-150.537-67.53-150.537-150.536c0-45.189,18.763-117.69,45.627-176.308
			c31.903-69.612,70.141-109.537,104.91-109.537c34.768,0,73.007,39.925,104.909,109.537
			c26.864,58.618,45.627,131.12,45.627,176.308C496.792,406.66,429.263,474.191,346.256,474.191z"/>
	</g>
</g>
<g>
	<g>
		<path d="M73.392,106.396c-3.664-2.05-8.297-0.743-10.348,2.921c-1.257,2.246-2.51,4.534-3.722,6.802
			c-1.979,3.704-0.591,8.329,3.122,10.291c5.41,2.857,8.922-0.559,10.291-3.122c1.166-2.181,2.37-4.383,3.579-6.542
			C78.364,113.081,77.057,108.447,73.392,106.396z"/>
	</g>
</g>
<g>
	<g>
		<path d="M346.256,304.601c-13.589,0-24.643,11.054-24.643,24.642c0,13.589,11.055,24.643,24.643,24.643
			s24.642-11.054,24.642-24.643C370.898,315.655,359.843,304.601,346.256,304.601z M346.256,338.679
			c-5.202,0-9.435-4.233-9.435-9.435c0-5.202,4.233-9.434,9.435-9.434s9.434,4.232,9.434,9.434
			C355.69,334.447,351.458,338.679,346.256,338.679z"/>
	</g>
</g>
<g>
	<g>
		<path d="M442.447,268.274c-13.588,0-24.642,11.055-24.642,24.643s11.055,24.642,24.642,24.642
			c13.589,0,24.643-11.055,24.643-24.642C467.09,279.328,456.035,268.274,442.447,268.274z M442.447,302.351
			c-5.202,0-9.434-4.232-9.434-9.434c0-5.203,4.232-9.435,9.434-9.435c5.202,0,9.435,4.232,9.435,9.435
			C451.882,298.119,447.649,302.351,442.447,302.351z"/>
	</g>
</g>
<g>
	<g>
		<path d="M363.294,181.171c-13.588,0-24.642,11.054-24.642,24.642s11.055,24.642,24.642,24.642
			c13.588,0,24.643-11.054,24.643-24.642S376.882,181.171,363.294,181.171z M363.294,215.247c-5.202,0-9.434-4.232-9.434-9.434
			c0-5.202,4.232-9.434,9.434-9.434c5.202,0,9.435,4.232,9.435,9.434C372.729,211.015,368.496,215.247,363.294,215.247z"/>
	</g>
</g>
<g>
	<g>
		<path d="M393.32,278.109c-1.419-1.419-3.377-2.231-5.384-2.231c-1.998,0-3.955,0.811-5.373,2.231
			c-1.419,1.409-2.23,3.376-2.23,5.373c0,2.007,0.811,3.964,2.23,5.384c1.419,1.409,3.375,2.22,5.373,2.22
			c2.006,0,3.964-0.811,5.384-2.22c1.409-1.419,2.22-3.376,2.22-5.384C395.541,281.485,394.731,279.528,393.32,278.109z"/>
	</g>
</g>
<g>
	<g>
		<path d="M417.416,340.908c-1.419-1.419-3.377-2.23-5.384-2.23c-1.998,0-3.955,0.811-5.373,2.23
			c-1.419,1.409-2.231,3.376-2.231,5.373c0,2.007,0.811,3.964,2.231,5.384c1.419,1.409,3.375,2.22,5.373,2.22
			c2.006,0,3.964-0.811,5.384-2.22c1.409-1.419,2.22-3.376,2.22-5.384C419.636,344.285,418.826,342.328,417.416,340.908z"/>
	</g>
</g>
<g>
	<g>
		<path d="M320.697,270.505c-1.419-1.419-3.377-2.23-5.384-2.23c-1.998,0-3.955,0.811-5.373,2.23
			c-1.419,1.409-2.231,3.376-2.231,5.373c0,2.007,0.811,3.964,2.231,5.384c1.419,1.409,3.375,2.22,5.373,2.22
			c2.006,0,3.964-0.811,5.384-2.22c1.409-1.419,2.22-3.376,2.22-5.384C322.917,273.881,322.107,271.924,320.697,270.505z"/>
	</g>
</g>
<g>
	<g>
		<path d="M432.624,208.044c-1.419-1.419-3.377-2.231-5.384-2.231c-1.998,0-3.955,0.811-5.373,2.231
			c-1.419,1.409-2.23,3.376-2.23,5.373c0,2.007,0.811,3.964,2.23,5.384c1.419,1.409,3.375,2.22,5.373,2.22
			c2.006,0,3.964-0.811,5.384-2.22c1.409-1.419,2.22-3.376,2.22-5.384C434.844,211.42,434.034,209.463,432.624,208.044z"/>
	</g>
</g>
<g>
	<g>
		<path d="M387.586,125.414c-1.419-1.419-3.377-2.231-5.384-2.231c-1.998,0-3.955,0.811-5.373,2.231
			c-1.419,1.409-2.231,3.376-2.231,5.373c0,2.007,0.811,3.964,2.231,5.384c1.419,1.409,3.375,2.22,5.373,2.22
			c2.007,0,3.964-0.811,5.384-2.22c1.409-1.419,2.22-3.376,2.22-5.384C389.806,128.79,388.996,126.834,387.586,125.414z"/>
	</g>
</g>
<g>
	<g>
		<path d="M376.281,373.859c-1.419-1.419-3.377-2.23-5.384-2.23c-1.998,0-3.955,0.811-5.373,2.23
			c-1.419,1.409-2.23,3.376-2.23,5.373c0,2.007,0.811,3.964,2.23,5.384c1.419,1.409,3.375,2.22,5.373,2.22
			c2.007,0,3.965-0.811,5.384-2.22c1.409-1.419,2.22-3.376,2.22-5.384C378.502,377.235,377.692,375.278,376.281,373.859z"/>
	</g>
</g>
<g>
	<g>
		<path d="M465.245,370.715c-3.801-1.779-8.329-0.14-10.111,3.663c-1.759,3.76-3.736,7.467-5.872,11.018
			c-2.165,3.598-1.222,8.683,2.594,10.436c5.142,2.362,9.008-0.223,10.436-2.594c2.408-4.001,4.633-8.176,6.616-12.412
			C470.688,377.022,469.049,372.495,465.245,370.715z"/>
	</g>
</g>
<g>
	<g>
		<path d="M447.706,401.537c-3.17-2.754-7.974-2.415-10.727,0.757c-12.378,14.261-28.108,25.547-45.49,32.639
			c-3.888,1.587-5.221,5.849-4.167,9.914c1.772,6.827,8.974,4.551,9.914,4.168c19.579-7.99,37.294-20.699,51.228-36.751
			C451.217,409.093,450.878,404.29,447.706,401.537z"/>
	</g>
</g>
</svg>